<?xml version="1.0" encoding="UTF-8" standalone="no"?>
<svg width="8px" height="16px" viewBox="0 0 8 16" version="1.1" xmlns="http://www.w3.org/2000/svg" xmlns:xlink="http://www.w3.org/1999/xlink">
    <!-- Generator: Sketch 39.1 (31720) - http://www.bohemiancoding.com/sketch -->
    <title>mineral</title>
    <desc>Created with Sketch.</desc>
    <defs></defs>
    <g stroke="none" stroke-width="1" fill="none" fill-rule="evenodd">
        <g transform="translate(-114.000000, -51.000000)" fill="#B39EA9">
            <path d="M117.400554,64.7054009 L115.700267,63.0151664 L117.400554,63.0151664 L117.400554,64.7054009 Z M118.60075,64.7153964 L120.292429,63.0151664 L118.60075,63.0151664 L118.60075,64.7153964 Z M118.60075,53.3091783 L120.288133,55.0138622 L118.60075,55.0138622 L118.60075,53.3091783 Z M117.400554,53.3254213 L115.716233,55.0138622 L117.400554,55.0138622 L117.400554,53.3254213 Z M117.400554,61.8122456 L115.204753,61.8149707 L115.200196,56.2140579 L117.400554,56.2165304 L117.400554,61.8122456 Z M118.60075,61.810756 L120.801109,61.8080252 L120.801109,56.2203517 L118.60075,56.2178791 L118.60075,61.810756 Z M121.988094,55.0138622 L118.000652,51 L114.01321,55.0138622 L114,55.0138622 L114,63.0151664 L118.000652,67.0158184 L122.001304,63.0151664 L122.001304,55.0138622 L121.988094,55.0138622 Z"></path>
        </g>
    </g>
</svg>